<svg width="23" height="23" viewBox="0 0 23 23" fill="none" xmlns="http://www.w3.org/2000/svg">
<path d="M20.6673 11.6305C20.6673 16.6931 16.5633 20.7972 11.5007 20.7972M20.6673 11.6305C20.6673 6.56792 16.5633 2.46387 11.5007 2.46387M20.6673 11.6305C20.6673 10.1118 16.5633 8.88053 11.5007 8.88053C6.43804 8.88053 2.33398 10.1118 2.33398 11.6305M20.6673 11.6305C20.6673 13.1493 16.5633 14.3805 11.5007 14.3805C6.43804 14.3805 2.33398 13.1493 2.33398 11.6305M11.5007 20.7972C6.43804 20.7972 2.33398 16.6931 2.33398 11.6305M11.5007 20.7972C13.5257 20.7972 15.1673 16.6931 15.1673 11.6305C15.1673 6.56792 13.5257 2.46387 11.5007 2.46387M11.5007 20.7972C9.47561 20.7972 7.83398 16.6931 7.83398 11.6305C7.83398 6.56792 9.47561 2.46387 11.5007 2.46387M2.33398 11.6305C2.33398 6.56792 6.43804 2.46387 11.5007 2.46387" stroke="#1F1F1F" stroke-width="1.5"/>
</svg>
