<svg width="30" height="30" viewBox="0 0 30 30" fill="none" xmlns="http://www.w3.org/2000/svg">
<path d="M7.45432 15C7.45432 16.9891 8.23985 18.8968 9.63808 20.3033C11.0363 21.7098 12.9327 22.5 14.9101 22.5H27.8255C26.1842 25.3596 23.6507 27.5946 20.6181 28.8582C17.5854 30.1218 14.2229 30.3435 11.0522 29.4889C7.8815 28.6343 5.07973 26.7511 3.08144 24.1314C1.08314 21.5118 0 18.302 0 15C0 11.698 1.08314 8.48824 3.08144 5.86858C5.07973 3.24892 7.8815 1.36574 11.0522 0.511118C14.2229 -0.343506 17.5854 -0.121813 20.6181 1.14181C23.6507 2.40544 26.1842 4.64038 27.8255 7.5C28.2565 8.24697 28.6213 9.03062 28.9159 9.84188V9.85688C28.9494 9.94875 28.983 10.0444 29.0147 10.1344C29.0154 10.1375 29.0154 10.1407 29.0147 10.1438C29.1867 10.7041 29.2256 11.2973 29.1283 11.8756C29.0311 12.4539 28.8003 13.0011 28.4546 13.4734C28.1089 13.9457 27.6579 14.3299 27.1379 14.595C26.6178 14.8601 26.0431 14.9988 25.4601 15H22.3659C22.3659 13.0109 21.5804 11.1032 20.1822 9.6967C18.784 8.29018 16.8875 7.5 14.9101 7.5C12.9327 7.5 11.0363 8.29018 9.63808 9.6967C8.23985 11.1032 7.45432 13.0109 7.45432 15Z" fill="#00CE7A"/>
</svg>
