<?xml version="1.0" standalone="no"?><!DOCTYPE svg PUBLIC "-//W3C//DTD SVG 1.1//EN" "http://www.w3.org/Graphics/SVG/1.1/DTD/svg11.dtd"><svg t="1706625974693" class="icon" viewBox="0 0 1024 1024" version="1.1" xmlns="http://www.w3.org/2000/svg" p-id="1976" xmlns:xlink="http://www.w3.org/1999/xlink" width="48" height="48"><path d="M512 1024A512 512 0 1 0 512 0a512 512 0 0 0 0 1024z" fill="#FF0420" p-id="1977"></path><path d="M287.808 626.56c19.456 14.336 44.48 21.504 74.944 21.504 36.864 0 66.368-8.576 88.384-25.728 22.016-17.408 37.568-43.712 46.528-78.784 5.376-21.504 9.984-43.712 13.824-66.496 1.28-8.192 1.92-14.976 1.92-20.352 0-17.92-4.48-33.28-13.44-46.08a80.64 80.64 0 0 0-36.928-29.248 134.144 134.144 0 0 0-52.992-9.984c-72.512 0-117.504 35.2-134.912 105.664-6.144 25.856-10.88 48-14.208 66.496-1.28 8.192-1.92 15.104-1.92 20.736 0 26.88 9.6 47.68 28.8 62.272z m116.864-46.528a54.592 54.592 0 0 1-36.48 12.672c-24.64 0-36.928-11.776-36.928-35.328 0-5.632 0.512-11.008 1.536-16.128 4.608-24.832 9.216-45.888 13.824-63.04 4.352-17.408 11.52-30.336 21.504-38.784a56.128 56.128 0 0 1 36.928-12.672c24.32 0 36.48 11.648 36.48 34.944 0 5.632-0.512 11.136-1.536 16.512-3.072 17.92-7.552 38.976-13.44 63.04-4.352 17.408-11.648 30.336-21.888 38.784z m119.872 61.44a8.128 8.128 0 0 0 6.528 2.752h52.288c2.56 0 4.992-0.896 7.296-2.688a11.008 11.008 0 0 0 4.224-6.912L612.48 550.4h51.84c33.6 0 59.968-7.04 79.232-21.12 19.456-14.08 32.384-35.84 38.784-65.344a92.16 92.16 0 0 0 2.304-19.968c0-22.336-8.704-39.36-26.112-51.136-17.152-11.776-40-17.664-68.48-17.664H588.032a11.712 11.712 0 0 0-7.296 2.688 11.008 11.008 0 0 0-4.224 6.912l-53.056 249.792a9.152 9.152 0 0 0 1.152 6.912z m170.624-152.896a45.76 45.76 0 0 1-28.032 8.832h-44.16l14.528-68.8h46.08c10.56 0 17.984 2.048 22.4 6.144 4.288 3.84 6.464 9.536 6.464 16.96 0 3.328-0.384 7.168-1.152 11.52a41.472 41.472 0 0 1-16.128 25.344z" fill="#FFFFFF" p-id="1978"></path></svg>