<?xml version="1.0" standalone="no"?>
<!DOCTYPE svg PUBLIC "-//W3C//DTD SVG 20010904//EN"
 "http://www.w3.org/TR/2001/REC-SVG-20010904/DTD/svg10.dtd">
<svg version="1.0" xmlns="http://www.w3.org/2000/svg"
 width="180.000000pt" height="180.000000pt" viewBox="0 0 180.000000 180.000000"
 preserveAspectRatio="xMidYMid meet">

<g transform="translate(0.000000,180.000000) scale(0.100000,-0.100000)"
fill="#000000" stroke="none">
<path d="M433 1576 c-149 -47 -237 -164 -237 -316 1 -55 6 -88 22 -123 27 -60
72 -118 106 -136 23 -13 28 -12 46 4 11 10 20 22 20 26 0 4 -18 29 -40 54 -53
61 -72 108 -73 176 0 71 30 136 86 184 73 63 91 65 568 65 375 0 429 -2 443
-16 14 -13 16 -61 16 -374 l0 -358 23 -5 c12 -2 30 -8 40 -12 17 -7 18 12 15
384 l-3 391 -33 32 -32 33 -463 2 c-361 2 -471 -1 -504 -11z"/>
<path d="M390 1300 c0 -36 3 -40 25 -40 l25 0 0 -424 0 -424 28 -53 c20 -39
41 -62 77 -84 l48 -30 383 -3 c256 -2 397 1 424 8 23 6 59 27 81 47 76 69 102
153 75 244 -20 70 -67 126 -130 155 -51 24 -54 24 -413 24 l-362 0 -27 -23
c-23 -20 -28 -34 -32 -83 -6 -85 14 -129 66 -145 57 -17 74 -8 70 38 -2 31 -7
39 -25 41 -20 3 -23 9 -23 48 l0 45 38 -7 c78 -14 124 -72 124 -156 0 -40 -6
-57 -29 -86 -80 -101 -215 -92 -270 18 -23 44 -23 49 -23 465 l0 422 -23 21
c-16 15 -36 22 -65 22 l-42 0 0 -40z m1018 -690 c97 -59 96 -192 -1 -264 -27
-20 -43 -21 -278 -24 -137 -2 -249 -1 -249 2 0 3 10 25 22 48 31 59 31 156 0
216 l-22 42 247 0 c230 0 250 -2 281 -20z"/>
<path d="M660 1280 l0 -40 248 0 c268 0 287 3 280 51 l-3 24 -262 3 -263 2 0
-40z"/>
<path d="M660 1090 l0 -40 300 0 300 0 12 25 c8 19 8 28 -2 40 -11 13 -55 15
-311 15 l-299 0 0 -40z"/>
<path d="M660 900 l0 -40 256 2 c232 3 258 5 268 21 8 12 8 22 0 35 -10 15
-36 17 -268 20 l-256 2 0 -40z"/>
</g>
</svg>
