<?xml version="1.0" standalone="no"?><!DOCTYPE svg PUBLIC "-//W3C//DTD SVG 1.1//EN" "http://www.w3.org/Graphics/SVG/1.1/DTD/svg11.dtd"><svg t="1706252514254" class="icon" viewBox="0 0 1024 1024" version="1.1" xmlns="http://www.w3.org/2000/svg" p-id="1163" xmlns:xlink="http://www.w3.org/1999/xlink" width="48" height="48"><path d="M513.896296 986.074074c263.888593 0 477.866667-213.978074 477.866667-477.866667s-213.978074-477.866667-477.866667-477.866666-477.866667 213.978074-477.866666 477.866666 213.978074 477.866667 477.866666 477.866667z" fill="#2775CA" p-id="1164"></path><path d="M644.892444 584.210963c0-69.783704-42.477037-93.297778-124.54874-104.523852-60.529778-8.798815-72.286815-22.983111-72.286815-51.275852 0-26.851556 20.48-45.89037 60.074667-45.89037 35.802074 0 56.357926 12.515556 64.853333 41.263407 1.896296 6.447407 7.661037 10.998519 14.336 10.998519h31.402667c8.722963 0 15.54963-8.040296 13.729185-16.611556-9.936593-45.511111-40.580741-72.817778-88.670815-81.389037v-47.559111c0-8.267852-6.674963-14.942815-14.942815-14.942815h-29.88563c-8.267852 0-14.942815 6.674963-14.942814 14.942815v46.26963c-59.240296 8.419556-97.46963 47.786667-97.46963 98.379852 0 65.460148 39.518815 90.794667 123.031704 102.02074 56.661333 9.253926 72.741926 21.466074 72.741926 53.703111s-27.382519 53.703111-65.91526 53.703112c-52.110222 0-69.328593-22.831407-75.624296-52.337778-1.517037-6.97837-7.509333-12.136296-14.639407-12.136297h-34.057482c-8.571259 0-15.322074 7.736889-13.805037 16.156445 8.647111 49.682963 40.580741 86.167704 105.737482 95.04237v47.179852c0 8.267852 6.674963 14.942815 14.942814 14.942815h29.88563c8.267852 0 14.942815-6.674963 14.942815-14.942815v-47.179852c61.667556-9.784889 101.110519-52.717037 101.110518-105.813333z" fill="#FFFFFF" p-id="1165"></path><path d="M411.496296 793.713778c-114.384593-41.870222-196.228741-151.855407-196.22874-280.576 0-128.720593 81.844148-238.629926 196.22874-280.576 7.130074-2.578963 12.818963-11.226074 12.818963-18.811259v-27.83763c0-11.301926-8.798815-17.673481-19.569778-14.260148C260.171852 217.92237 155.496296 353.317926 155.496296 513.21363c0 159.895704 104.675556 295.291259 249.249185 341.485037 10.770963 3.413333 19.569778-2.958222 19.569778-14.260148v-27.83763c0-7.661037-5.688889-16.232296-12.818963-18.887111zM623.122963 171.728593c-10.770963-3.413333-19.569778 2.958222-19.569778 14.260148v27.837629c0 7.585185 5.688889 16.232296 12.818963 18.81126 114.384593 41.870222 196.228741 151.855407 196.228741 280.576 0 128.720593-81.844148 238.629926-196.228741 280.576-7.812741 2.88237-12.818963 10.543407-12.818963 18.811259v27.83763c0 11.301926 8.798815 17.673481 19.569778 14.260148 144.57363-46.193778 249.249185-181.589333 249.249185-341.485037S767.620741 217.92237 623.122963 171.728593z" fill="#FFFFFF" p-id="1166"></path></svg>